<?xml version="1.0" standalone="no"?>
<!DOCTYPE svg PUBLIC "-//W3C//DTD SVG 20010904//EN"
 "https://www.w3.org/TR/2001/REC-SVG-20010904/DTD/svg10.dtd">
<svg version="1.0" xmlns="https://www.w3.org/2000/svg"
 width="500.000000pt" height="500.000000pt" viewBox="0 0 500.000000 500.000000"
 preserveAspectRatio="xMidYMid meet">
<metadata>
Created by potrace 1.14, written by Peter Selinger 2001-2017
</metadata>
<g transform="translate(0.000000,500.000000) scale(0.100000,-0.100000)"
fill="#000000" stroke="none">
<path d="M2280 4993 c-126 -12 -222 -28 -340 -55 -901 -205 -1630 -912 -1861
-1807 -94 -362 -104 -782 -29 -1140 179 -850 789 -1551 1608 -1847 100 -37
320 -94 432 -113 187 -32 487 -41 678 -20 207 22 476 90 659 165 756 311 1304
938 1498 1714 59 232 70 333 70 625 -1 283 -8 347 -66 584 -246 1002 -1100
1759 -2128 1887 -104 13 -422 17 -521 7z m78 -364 c82 -29 106 -199 35 -246
-15 -10 -36 -16 -47 -14 -12 1 -18 0 -14 -5 5 -4 24 -7 44 -6 72 3 87 -23 100
-170 l7 -78 -35 0 -35 0 -10 95 c-5 52 -16 101 -23 110 -13 16 -121 21 -169 8
-21 -5 -23 -10 -17 -52 4 -25 9 -79 13 -118 l6 -73 -35 0 -34 0 -18 163 c-10
89 -23 209 -30 266 -8 70 -8 105 -1 107 51 20 220 28 263 13z m850 -94 c3 -2
-8 -108 -23 -235 -15 -127 -25 -233 -22 -236 2 -3 68 76 146 175 77 99 145
182 150 185 14 9 83 -24 78 -37 -95 -242 -203 -487 -214 -487 -8 0 -23 4 -33
10 -20 11 -24 -1 112 323 22 54 38 100 36 103 -3 2 -65 -75 -138 -173 -73 -98
-136 -181 -139 -185 -3 -4 -16 -5 -29 -2 -16 5 -22 14 -22 33 0 29 46 379 55
419 3 12 2 22 -3 22 -4 0 -45 -92 -92 -205 -46 -113 -89 -205 -94 -205 -6 1
-20 6 -32 13 -21 12 -19 17 84 264 l104 252 36 -15 c20 -8 38 -17 40 -19z
m-1489 -74 c108 -56 199 -229 189 -362 -9 -121 -114 -190 -221 -145 -66 27
-149 143 -177 246 -51 190 64 334 209 261z m-504 -362 c66 -32 153 -121 190
-194 91 -182 -43 -332 -220 -246 -65 32 -153 122 -189 195 -40 79 -45 148 -14
200 46 78 132 95 233 45z m2748 -4 c20 -20 37 -40 37 -45 0 -24 -242 -490
-254 -490 -7 0 -21 9 -30 19 -16 18 -16 22 13 79 l30 60 -69 61 c-37 34 -73
61 -80 61 -6 0 -32 -14 -57 -31 -44 -30 -47 -31 -72 -16 -14 8 -26 19 -28 24
-2 7 454 313 467 313 3 -1 22 -16 43 -35z m-1193 -235 c360 -73 688 -292 883
-588 252 -383 304 -885 132 -1293 -187 -445 -567 -754 -1042 -845 -119 -23
-356 -23 -483 0 -834 149 -1342 1003 -1074 1806 79 237 228 459 413 615 99 83
168 128 296 190 171 83 295 118 500 139 80 8 279 -4 375 -24z m1531 -274 c-67
-85 -226 -298 -236 -315 -6 -10 3 -8 26 6 116 71 344 203 351 203 4 0 14 -12
22 -27 l14 -28 -231 -137 c-128 -76 -235 -138 -238 -138 -3 0 -14 15 -24 34
l-18 33 146 189 c80 104 144 191 141 193 -2 2 -88 -46 -191 -107 -188 -112
-188 -112 -205 -91 -10 12 -18 26 -18 33 1 6 105 72 233 147 l232 136 22 -35
22 -36 -48 -60z m-3464 38 c91 -53 109 -157 46 -259 -18 -27 -30 -52 -27 -56
2 -4 40 -28 84 -53 44 -26 80 -50 80 -54 0 -4 -8 -17 -18 -30 l-18 -23 -224
131 c-124 72 -229 135 -233 139 -11 11 75 160 111 193 56 53 122 57 199 12z
m532 -2225 c76 -74 101 -116 101 -170 0 -70 -65 -148 -141 -167 -60 -15 -112
3 -175 61 l-55 50 -67 -66 c-37 -37 -72 -67 -78 -67 -6 0 -19 9 -29 20 -18 20
-16 23 116 158 74 75 159 163 188 195 30 31 57 57 60 57 3 0 39 -32 80 -71z
m2496 -81 c83 -84 168 -172 190 -195 l39 -43 -28 -29 -27 -29 -221 100 c-121
54 -222 97 -224 95 -2 -2 66 -75 150 -163 84 -87 152 -164 149 -169 -2 -6 -13
-16 -25 -24 -19 -12 -27 -6 -110 76 -49 48 -135 137 -190 196 l-101 108 23 24
c13 14 29 25 36 25 7 0 95 -36 196 -81 101 -45 198 -88 216 -96 l34 -14 -19
25 c-10 13 -80 87 -155 162 l-137 139 21 22 c12 13 24 23 27 23 4 0 74 -69
156 -152z m-2055 -243 c34 -22 60 -68 60 -107 0 -71 -58 -153 -116 -164 -33
-6 -33 -6 -13 -27 28 -31 24 -52 -27 -154 l-47 -91 -33 16 -33 15 44 82 c49
88 55 123 28 147 -23 20 -133 82 -137 77 -2 -2 -27 -49 -56 -104 -29 -55 -54
-101 -56 -103 -1 -2 -16 4 -34 13 l-31 16 29 52 c16 29 75 138 131 244 l102
192 87 -47 c48 -26 94 -52 102 -57z m1810 -390 c0 -3 -13 -11 -30 -20 -28 -14
-30 -14 -43 7 -96 154 -257 429 -257 437 0 6 12 17 27 25 l27 14 138 -230 c76
-126 138 -231 138 -233z m-450 346 c0 -5 3 -16 6 -24 4 -11 -17 -22 -90 -47
-53 -17 -98 -35 -101 -40 -3 -5 4 -35 16 -67 12 -32 26 -68 30 -80 l8 -22 88
30 c92 31 113 31 113 1 0 -14 -20 -25 -86 -47 -48 -17 -88 -35 -91 -41 -2 -6
10 -49 27 -97 l31 -85 100 35 c55 20 101 34 103 32 2 -2 6 -13 10 -25 6 -19
-4 -25 -116 -64 -68 -23 -128 -45 -135 -47 -13 -5 -23 22 -118 300 -43 126
-65 201 -58 208 10 10 228 87 251 88 6 1 12 -3 12 -8z m-934 -92 c62 -30 94
-97 94 -199 0 -193 -82 -328 -205 -338 -105 -9 -165 58 -173 189 -5 88 9 161
45 234 30 61 57 91 103 116 46 24 84 24 136 -2z m567 -29 c7 -26 5 -27 -76
-35 l-68 -7 6 -52 c4 -43 35 -423 35 -440 0 -3 -15 -6 -34 -6 -40 0 -37 -13
-56 245 -5 77 -13 164 -16 194 l-6 53 -69 -4 c-51 -3 -69 0 -70 9 -1 7 -2 19
-3 26 -1 8 35 15 124 23 202 18 227 17 233 -6z"/>
<path d="M2203 4583 c-24 -2 -43 -9 -43 -14 0 -6 5 -53 12 -105 l11 -95 46 6
c86 12 101 17 121 42 24 30 26 70 5 118 -14 36 -48 56 -88 53 -12 -1 -41 -3
-64 -5z"/>
<path d="M1589 4401 c-21 -17 -24 -27 -23 -93 0 -62 6 -85 36 -148 62 -134
132 -189 197 -156 65 34 61 137 -9 276 -44 87 -98 140 -142 140 -20 0 -46 -8
-59 -19z"/>
<path d="M1045 4045 c-17 -16 -25 -35 -25 -58 0 -105 179 -296 278 -297 13 0
37 14 54 30 26 26 30 36 25 65 -9 57 -38 106 -105 176 -98 104 -178 134 -227
84z"/>
<path d="M3786 3968 l-129 -91 59 -53 c32 -29 61 -53 64 -54 6 0 23 29 101
176 37 70 56 114 47 114 -7 -1 -71 -42 -142 -92z"/>
<path d="M2365 3850 c-167 -14 -297 -51 -458 -131 -394 -195 -661 -546 -743
-975 -23 -121 -23 -388 0 -499 89 -425 349 -766 728 -959 198 -100 356 -136
605 -136 254 0 392 30 600 132 383 186 657 546 737 967 22 113 22 403 1 509
-119 589 -607 1036 -1193 1092 -116 11 -141 11 -277 0z m366 -35 c542 -89 987
-534 1084 -1085 22 -125 23 -337 2 -456 -81 -454 -388 -836 -812 -1009 -310
-128 -658 -133 -975 -14 -438 164 -765 559 -846 1019 -32 186 -17 440 37 615
46 151 130 314 224 435 55 71 184 198 255 250 292 217 662 305 1031 245z"/>
<path d="M1597 2862 c-114 -372 -208 -682 -208 -689 1 -13 1094 -853 1110
-853 6 0 65 43 133 95 68 52 314 240 548 418 234 178 426 331 428 340 2 9 -90
320 -205 691 l-208 676 -695 0 -695 0 -208 -678z m728 273 c43 -9 92 -29 129
-51 48 -30 62 -35 75 -25 43 31 146 73 206 83 162 27 340 -52 434 -192 55 -83
72 -144 72 -258 -1 -105 -23 -175 -83 -263 l-33 -49 -203 0 c-201 0 -203 0
-227 -24 -17 -18 -26 -40 -31 -85 -3 -34 -10 -61 -14 -61 -4 0 -11 21 -15 48
-16 110 -41 132 -149 132 l-63 0 -63 289 c-35 159 -71 299 -80 310 -8 12 -32
24 -52 27 -32 6 -41 2 -65 -22 -26 -26 -32 -48 -62 -204 -19 -96 -44 -224 -56
-285 l-22 -110 -63 -3 c-76 -4 -85 3 -135 103 -47 96 -61 176 -46 269 23 142
106 258 233 327 106 56 195 69 313 44z m-36 -428 c29 -133 60 -272 68 -309
l15 -68 82 0 c44 0 87 -4 93 -8 10 -6 113 -473 113 -509 0 -3 2 -4 5 -1 3 2
18 106 35 229 16 123 33 236 36 252 l6 27 243 0 c199 0 244 -3 248 -14 3 -8 3
-17 0 -20 -4 -3 -107 -6 -230 -6 -170 0 -225 -3 -228 -12 -3 -7 -22 -147 -44
-312 -22 -164 -44 -303 -50 -309 -7 -7 -14 -8 -21 -1 -6 6 -38 149 -72 320
-34 170 -63 311 -65 313 -1 2 -39 4 -83 3 -52 0 -85 4 -93 12 -7 7 -37 123
-66 257 -29 134 -56 247 -60 251 -4 4 -28 -106 -55 -245 -27 -138 -53 -256
-58 -262 -11 -12 -320 -16 -338 -5 -7 5 -10 15 -7 24 5 14 28 16 160 16 l154
0 57 293 c31 160 61 302 66 314 21 50 37 10 89 -230z m-39 -327 c20 -96 27
-114 52 -135 25 -21 40 -25 99 -25 38 0 69 -2 69 -5 0 -3 20 -105 45 -228 43
-207 44 -223 28 -234 -9 -7 -26 -13 -36 -13 -20 0 -35 15 -300 305 l-155 170
41 6 c60 9 79 38 101 154 17 94 23 115 30 115 2 0 13 -50 26 -110z m680 -209
c-15 -20 -49 -56 -75 -81 l-47 -45 7 55 c13 117 8 110 80 108 l64 -2 -29 -35z"/>
<path d="M681 3574 c-22 -16 -81 -99 -81 -115 0 -6 192 -119 203 -119 8 0 55
84 62 112 9 35 -17 82 -62 113 -43 29 -88 32 -122 9z"/>
<path d="M1222 1303 c-39 -43 -74 -82 -78 -86 -5 -4 14 -28 41 -52 59 -53 101
-59 156 -22 42 27 73 88 65 123 -8 29 -83 114 -101 114 -7 0 -44 -35 -83 -77z"/>
<path d="M1648 1078 c-9 -13 -31 -55 -51 -94 l-36 -71 70 -33 c57 -28 74 -32
96 -24 37 13 73 68 73 114 0 41 -18 62 -91 104 l-46 26 -15 -22z"/>
<path d="M2106 868 c-49 -49 -78 -135 -83 -243 -5 -114 12 -155 70 -169 31 -8
42 -6 65 11 38 28 69 87 87 165 36 158 10 260 -68 266 -32 3 -43 -2 -71 -30z"/>
</g>
</svg>
